<?xml version="1.0" standalone="no"?>
<!DOCTYPE svg PUBLIC "-//W3C//DTD SVG 20010904//EN"
 "http://www.w3.org/TR/2001/REC-SVG-20010904/DTD/svg10.dtd">
<svg version="1.0" xmlns="http://www.w3.org/2000/svg"
 width="512.000000pt" height="512.000000pt" viewBox="0 0 512.000000 512.000000"
 preserveAspectRatio="xMidYMid meet">
<metadata>
Created by potrace 1.14, written by Peter Selinger 2001-2017
</metadata>
<g transform="translate(0.000000,512.000000) scale(0.100000,-0.100000)"
fill="#000000" stroke="none">
<path d="M1218 3564 l-3 -1325 -570 849 -570 849 -3 -549 -2 -548 927 -1390
926 -1390 646 2 646 3 928 1390 927 1390 -2 546 -3 546 -517 -781 c-284 -430
-523 -790 -531 -800 -13 -18 -14 -15 -10 30 6 62 -11 229 -32 308 -39 148 -98
254 -204 368 -124 132 -287 226 -488 279 -46 12 -83 25 -83 28 1 3 40 29 87
56 175 101 314 264 369 431 27 82 29 100 29 239 0 111 -5 167 -18 215 -62 231
-223 389 -491 485 -233 84 -386 95 -1283 95 l-673 0 -2 -1326z m1462 906 c129
-12 206 -31 286 -70 163 -79 231 -232 205 -456 -26 -216 -112 -332 -305 -413
-128 -53 -220 -62 -713 -68 l-443 -6 0 512 0 511 433 0 c237 0 479 -5 537 -10z
m145 -1421 c214 -19 319 -50 445 -134 104 -69 157 -142 196 -270 27 -88 27
-354 0 -443 -36 -121 -133 -238 -258 -314 -187 -114 -367 -138 -1047 -138
l-451 0 0 655 0 655 498 0 c273 0 551 -5 617 -11z m592 -1601 c-291 -448 -830
-1249 -836 -1242 -4 5 -177 262 -384 571 l-376 561 512 5 c541 5 612 10 807
58 91 23 203 64 278 104 26 13 48 24 50 25 1 0 -22 -37 -51 -82z"/>
</g>
</svg>
